<?xml version="1.0" encoding="UTF-8"?>
<!DOCTYPE svg PUBLIC "-//W3C//DTD SVG 1.1//EN" "http://www.w3.org/Graphics/SVG/1.1/DTD/svg11.dtd">
<svg xmlns="http://www.w3.org/2000/svg" version="1.1" width="1024px" height="1024px" style="shape-rendering:geometricPrecision; text-rendering:geometricPrecision; image-rendering:optimizeQuality; fill-rule:evenodd; clip-rule:evenodd" xmlns:xlink="http://www.w3.org/1999/xlink">
<g><path style="opacity:1" fill="#00796a" d="M 321.5,563.5 C 324.818,572.472 328.984,581.138 334,589.5C 337.812,595.309 342.312,600.476 347.5,605C 341.958,605.981 336.792,605.147 332,602.5C 325.736,590.263 322.236,577.263 321.5,563.5 Z"/></g>
<g><path style="opacity:1" fill="#00796a" d="M 710.5,565.5 C 711.833,566.167 711.833,566.167 710.5,565.5 Z"/></g>
<g><path style="opacity:1" fill="#00796a" d="M 710.5,566.5 C 708.73,578.981 705.23,590.981 700,602.5C 698.174,604.074 696.007,604.907 693.5,605C 690.167,605.667 686.833,605.667 683.5,605C 695.843,594.469 704.843,581.636 710.5,566.5 Z"/></g>
</svg>
