<?xml version="1.0" encoding="UTF-8"?>
<!DOCTYPE svg PUBLIC "-//W3C//DTD SVG 1.1//EN" "http://www.w3.org/Graphics/SVG/1.1/DTD/svg11.dtd">
<svg xmlns="http://www.w3.org/2000/svg" version="1.1" width="1024px" height="1024px" style="shape-rendering:geometricPrecision; text-rendering:geometricPrecision; image-rendering:optimizeQuality; fill-rule:evenodd; clip-rule:evenodd" xmlns:xlink="http://www.w3.org/1999/xlink">
<g><path style="opacity:1" fill="#00796a" d="M 341.5,597.5 C 349.168,597.507 351.168,600.84 347.5,607.5C 340.874,609.705 338.041,607.372 339,600.5C 339.698,599.309 340.531,598.309 341.5,597.5 Z"/></g>
<g><path style="opacity:1" fill="#017769" d="M 693.5,606.5 C 693.5,606.833 693.5,607.167 693.5,607.5C 690.859,608.263 688.192,608.43 685.5,608C 681.977,605.206 681.644,602.04 684.5,598.5C 687.946,596.821 690.779,597.488 693,600.5C 693.225,602.791 693.392,604.791 693.5,606.5 Z"/></g>
<g><path style="opacity:0.004" fill="#30251b" d="M 693.5,607.5 C 693.5,607.167 693.5,606.833 693.5,606.5C 696.533,605.829 699.533,606.329 702.5,608C 699.333,610.024 696.333,609.857 693.5,607.5 Z"/></g>
</svg>
