<?xml version="1.0" encoding="UTF-8"?>
<!DOCTYPE svg PUBLIC "-//W3C//DTD SVG 1.1//EN" "http://www.w3.org/Graphics/SVG/1.1/DTD/svg11.dtd">
<svg xmlns="http://www.w3.org/2000/svg" version="1.1" width="1024px" height="1024px" style="shape-rendering:geometricPrecision; text-rendering:geometricPrecision; image-rendering:optimizeQuality; fill-rule:evenodd; clip-rule:evenodd" xmlns:xlink="http://www.w3.org/1999/xlink">
<g><path style="opacity:1" fill="#b61c1b" d="M 341.5,597.5 C 349.168,597.507 351.168,600.84 347.5,607.5C 340.874,609.705 338.041,607.372 339,600.5C 339.698,599.309 340.531,598.309 341.5,597.5 Z"/></g>
<g><path style="opacity:1" fill="#b51b1b" d="M 694.5,606.5 C 694.5,607.167 694.167,607.5 693.5,607.5C 690.474,608.577 687.474,608.577 684.5,607.5C 682.35,605.078 682.017,602.411 683.5,599.5C 685.922,597.35 688.589,597.017 691.5,598.5C 693.592,600.789 693.926,603.289 692.5,606C 693.094,606.464 693.761,606.631 694.5,606.5 Z"/></g>
<g><path style="opacity:0.004" fill="#2b251c" d="M 693.5,607.5 C 694.167,607.5 694.5,607.167 694.5,606.5C 697.089,605.963 699.756,606.463 702.5,608C 699.333,610.024 696.333,609.857 693.5,607.5 Z"/></g>
</svg>
