<?xml version="1.0" encoding="UTF-8"?>
<!DOCTYPE svg PUBLIC "-//W3C//DTD SVG 1.1//EN" "http://www.w3.org/Graphics/SVG/1.1/DTD/svg11.dtd">
<svg xmlns="http://www.w3.org/2000/svg" version="1.1" width="1024px" height="1024px" style="shape-rendering:geometricPrecision; text-rendering:geometricPrecision; image-rendering:optimizeQuality; fill-rule:evenodd; clip-rule:evenodd" xmlns:xlink="http://www.w3.org/1999/xlink">
<g><path style="opacity:1" fill="#eb4079" d="M 341.5,597.5 C 349.168,597.507 351.168,600.84 347.5,607.5C 340.874,609.705 338.041,607.372 339,600.5C 339.698,599.309 340.531,598.309 341.5,597.5 Z"/></g>
<g><path style="opacity:1" fill="#eb4079" d="M 692.5,606.5 C 692.5,606.833 692.5,607.167 692.5,607.5C 683.683,609.69 681.017,606.69 684.5,598.5C 691.863,596.53 694.53,599.197 692.5,606.5 Z"/></g>
<g><path style="opacity:0.004" fill="#2d241b" d="M 692.5,607.5 C 692.5,607.167 692.5,606.833 692.5,606.5C 695.909,605.674 699.242,606.174 702.5,608C 699.118,609.942 695.785,609.775 692.5,607.5 Z"/></g>
</svg>
