<?xml version="1.0" encoding="UTF-8"?>
<!DOCTYPE svg PUBLIC "-//W3C//DTD SVG 1.1//EN" "http://www.w3.org/Graphics/SVG/1.1/DTD/svg11.dtd">
<svg xmlns="http://www.w3.org/2000/svg" version="1.1" width="1024px" height="1024px" style="shape-rendering:geometricPrecision; text-rendering:geometricPrecision; image-rendering:optimizeQuality; fill-rule:evenodd; clip-rule:evenodd" xmlns:xlink="http://www.w3.org/1999/xlink">
<g><path style="opacity:1" fill="#6a1a9a" d="M 477.5,234.5 C 540.737,235.074 599.071,252.574 652.5,287C 713.337,331.862 741.504,392.362 737,468.5C 737.497,423.813 726.164,382.479 703,344.5C 695.997,335.912 688.497,327.579 680.5,319.5C 679.5,319.167 678.5,318.833 677.5,318.5C 650.55,325.808 624.55,335.641 599.5,348C 573.417,360.791 547.584,373.958 522,387.5C 483.224,363.131 442.724,341.631 400.5,323C 390.185,319.617 379.851,316.117 369.5,312.5C 325.859,347.758 300.359,393.425 293,449.5C 292.146,458.516 291.146,467.516 290,476.5C 286.709,433.198 293.376,391.532 310,351.5C 314.578,342.005 319.911,333.005 326,324.5C 331.564,317.85 337.23,311.183 343,304.5C 369.135,277.733 399.635,257.233 434.5,243C 448.632,238.427 462.965,235.593 477.5,234.5 Z"/></g>
</svg>
