<?xml version="1.0" encoding="UTF-8"?>
<!DOCTYPE svg PUBLIC "-//W3C//DTD SVG 1.1//EN" "http://www.w3.org/Graphics/SVG/1.1/DTD/svg11.dtd">
<svg xmlns="http://www.w3.org/2000/svg" version="1.1" width="1024px" height="1024px" style="shape-rendering:geometricPrecision; text-rendering:geometricPrecision; image-rendering:optimizeQuality; fill-rule:evenodd; clip-rule:evenodd" xmlns:xlink="http://www.w3.org/1999/xlink">
<g><path style="opacity:0.94" fill="#000101" d="M 223.5,618.5 C 234.563,622.533 245.229,627.366 255.5,633C 275.769,650.599 295.436,668.933 314.5,688C 315.5,688.333 316.5,688.667 317.5,689C 323.426,695.765 330.093,701.598 337.5,706.5C 338.5,706.167 339.167,705.5 339.5,704.5C 336.47,696.793 337.803,689.959 343.5,684C 350.044,681.335 355.711,682.502 360.5,687.5C 353.623,687.376 349.29,690.542 347.5,697C 348.218,702.401 350.884,707.068 355.5,711C 353,713.5 350.5,716 348,718.5C 346.144,723.735 347.978,726.401 353.5,726.5C 354.004,732.483 357.337,734.983 363.5,734C 365.227,735.743 365.894,737.576 365.5,739.5C 368.06,740.747 370.727,741.747 373.5,742.5C 375.622,748.777 377.122,755.444 378,762.5C 374.004,762.915 370.337,763.248 367,763.5C 363.805,762.467 360.305,761.3 356.5,760C 355.932,757.316 354.932,754.816 353.5,752.5C 351.208,751.691 349.041,751.357 347,751.5C 346.749,749.567 346.249,747.734 345.5,746C 345.833,745.667 346.167,745.333 346.5,745C 344.095,742.143 341.262,740.976 338,741.5C 336.38,739.759 334.88,737.925 333.5,736C 335.329,734.887 336.163,733.387 336,731.5C 331.957,735.375 328.123,739.375 324.5,743.5C 321.941,741.767 319.275,740.267 316.5,739C 313.568,737.886 310.734,737.386 308,737.5C 305.618,738.984 303.451,740.818 301.5,743C 301.833,743.333 302.167,743.667 302.5,744C 301.914,746.28 301.08,748.447 300,750.5C 292.062,742.466 292.895,735.299 302.5,729C 306.772,727.258 311.106,727.091 315.5,728.5C 316.737,728.444 317.737,727.944 318.5,727C 313.667,720.833 308.167,715.333 302,710.5C 301.691,709.234 301.191,708.067 300.5,707C 279.667,687.5 258.833,668 238,648.5C 232.687,638.726 227.854,628.726 223.5,618.5 Z"/></g>
<g><path style="opacity:1" fill="#691b9a" d="M 362.5,746.5 C 367.894,745.398 370.894,747.565 371.5,753C 370.472,757.206 367.805,758.539 363.5,757C 359.935,753.784 359.602,750.284 362.5,746.5 Z"/></g>
</svg>
