<?xml version="1.0" encoding="UTF-8"?>
<!DOCTYPE svg PUBLIC "-//W3C//DTD SVG 1.1//EN" "http://www.w3.org/Graphics/SVG/1.1/DTD/svg11.dtd">
<svg xmlns="http://www.w3.org/2000/svg" version="1.1" width="1024px" height="1024px" style="shape-rendering:geometricPrecision; text-rendering:geometricPrecision; image-rendering:optimizeQuality; fill-rule:evenodd; clip-rule:evenodd" xmlns:xlink="http://www.w3.org/1999/xlink">
<g><path style="opacity:1" fill="#287f3a" d="M 496.5,701.5 C 510.837,701.333 525.171,701.5 539.5,702C 541.004,703.491 541.837,705.324 542,707.5C 542.667,714.5 542.667,721.5 542,728.5C 541.535,729.931 540.701,731.097 539.5,732C 525.864,733.478 512.198,733.812 498.5,733C 498,732.5 497.5,732 497,731.5C 496.17,725.804 496.337,720.137 497.5,714.5C 501.148,713.527 502.814,711.193 502.5,707.5C 500.5,707.5 498.5,707.5 496.5,707.5C 496.5,705.5 496.5,703.5 496.5,701.5 Z M 509.5,707.5 C 518.167,707.5 526.833,707.5 535.5,707.5C 535.5,710.167 535.5,712.833 535.5,715.5C 533.167,715.5 530.833,715.5 528.5,715.5C 528.5,716.5 528.5,717.5 528.5,718.5C 530.833,718.5 533.167,718.5 535.5,718.5C 535.5,721.167 535.5,723.833 535.5,726.5C 524.872,727.43 514.205,727.763 503.5,727.5C 503.335,724.482 503.502,721.482 504,718.5C 505.785,717.76 507.618,717.093 509.5,716.5C 509.833,715.833 510.167,715.167 510.5,714.5C 509.777,712.218 509.443,709.884 509.5,707.5 Z"/></g>
</svg>
