<?xml version="1.0" encoding="UTF-8"?>
<!DOCTYPE svg PUBLIC "-//W3C//DTD SVG 1.1//EN" "http://www.w3.org/Graphics/SVG/1.1/DTD/svg11.dtd">
<svg xmlns="http://www.w3.org/2000/svg" version="1.1" width="1024px" height="1024px" style="shape-rendering:geometricPrecision; text-rendering:geometricPrecision; image-rendering:optimizeQuality; fill-rule:evenodd; clip-rule:evenodd" xmlns:xlink="http://www.w3.org/1999/xlink">
<g><path style="opacity:1" fill="#fedab8" d="M 387.5,363.5 C 433.033,383.682 477.199,406.349 520,431.5C 565.581,403.459 613.748,380.959 664.5,364C 690.794,394.852 704.96,430.686 707,471.5C 714.174,571.661 667.674,625.494 567.5,633C 527.431,636.561 487.431,635.894 447.5,631C 420.108,627.208 395.108,617.541 372.5,602C 351.35,584.804 338.516,562.637 334,535.5C 326.776,491.737 332.442,449.737 351,409.5C 360.716,392.277 372.883,376.943 387.5,363.5 Z"/></g>
<g><path style="opacity:1" fill="#fedab8" d="M 800.5,435.5 C 786.348,472.476 768.848,508.143 748,542.5C 742.577,550.345 736.911,558.011 731,565.5C 731.558,559.486 732.558,553.486 734,547.5C 734.333,533.833 734.667,520.167 735,506.5C 750.721,490.779 766.387,475.113 782,459.5C 788.765,451.909 794.931,443.909 800.5,435.5 Z"/></g>
<g><path style="opacity:1" fill="#fedab8" d="M 230.5,436.5 C 250.694,461.094 272.527,484.427 296,506.5C 296.333,520.5 296.667,534.5 297,548.5C 297.496,553.988 298.996,559.155 301.5,564C 299.613,564.163 298.113,563.329 297,561.5C 279.146,537.147 263.813,511.147 251,483.5C 243.604,468.046 236.771,452.379 230.5,436.5 Z"/></g>
<g><path style="opacity:1" fill="#fedbb8" d="M 629.5,438.5 C 636.108,437.115 641.275,439.115 645,444.5C 652.893,438.71 660.227,439.377 667,446.5C 670.333,452.167 670.333,457.833 667,463.5C 661.847,466.988 657.347,471.154 653.5,476C 654.531,495.956 654.197,515.622 652.5,535C 653.073,542.482 649.739,547.815 642.5,551C 637.978,551.679 633.644,551.346 629.5,550C 630.488,552.999 631.988,556.166 634,559.5C 635.731,561.617 637.898,563.117 640.5,564C 646.972,569.904 648.139,576.738 644,584.5C 642.269,586.617 640.102,588.117 637.5,589C 637.957,589.414 638.291,589.914 638.5,590.5C 634.713,595.395 629.713,598.229 623.5,599C 610.925,599.177 598.425,599.677 586,600.5C 585.586,600.043 585.086,599.709 584.5,599.5C 578.617,601.335 572.784,603.001 567,604.5C 566.667,604.167 566.333,603.833 566,603.5C 564.565,605.211 562.731,606.378 560.5,607C 554.029,607.568 547.529,609.068 541,611.5C 530,611.5 519,611.5 508,611.5C 489.758,607.948 471.425,603.615 453,598.5C 452.667,598.833 452.333,599.167 452,599.5C 445.333,598.167 438.667,596.833 432,595.5C 431.667,595.833 431.333,596.167 431,596.5C 424.581,595.687 418.081,595.187 411.5,595C 410.007,593.632 408.507,593.465 407,594.5C 406.612,593.572 405.945,592.905 405,592.5C 396.897,594.28 391.23,591.28 388,583.5C 386.367,576.265 388.533,570.431 394.5,566C 391.432,562.195 389.432,557.861 388.5,553C 388.5,544.333 388.5,535.667 388.5,527C 389.167,525 389.833,523 390.5,521C 390.5,518.333 390.5,515.667 390.5,513C 393.167,504 395.833,495 398.5,486C 395.509,483.069 392.343,480.235 389,477.5C 385,471.5 381,465.5 377,459.5C 375.833,446 382,439.833 395.5,441C 413.391,450.161 431.057,460.494 448.5,472C 460.658,483.633 461.658,495.633 451.5,508C 451.833,508.333 452.167,508.667 452.5,509C 450.618,511.978 449.118,515.145 448,518.5C 445.04,528.729 442.373,538.729 440,548.5C 434.624,554.212 428.124,556.046 420.5,554C 422.108,558.228 423.441,562.228 424.5,566C 428.089,566.207 431.589,566.707 435,567.5C 435.333,567.167 435.667,566.833 436,566.5C 442.667,567.833 449.333,569.167 456,570.5C 456.333,570.167 456.667,569.833 457,569.5C 475.425,574.615 493.758,578.948 512,582.5C 520.333,582.5 528.667,582.5 537,582.5C 548.168,579.678 559.501,576.344 571,572.5C 571.333,572.833 571.667,573.167 572,573.5C 574.52,572.793 577.02,571.96 579.5,571C 587.5,570.667 595.5,570.333 603.5,570C 599.942,568.108 597.442,565.275 596,561.5C 595.667,554.5 595.333,547.5 595,540.5C 594,538.833 593,537.167 592,535.5C 588.833,533.667 586.333,531.167 584.5,528C 579.9,528.011 575.567,527.011 571.5,525C 565.902,520.064 560.235,515.397 554.5,511C 550.878,506.255 547.378,501.422 544,496.5C 543.333,493.5 543.333,490.5 544,487.5C 547.378,482.578 550.878,477.745 554.5,473C 555.833,472.333 557.167,471.667 558.5,471C 562.211,470.825 565.878,470.325 569.5,469.5C 572.193,464.64 576.026,460.973 581,458.5C 581.333,458.833 581.667,459.167 582,459.5C 585.506,456.151 589.506,454.817 594,455.5C 605.67,448.405 617.504,442.739 629.5,438.5 Z"/></g>
</svg>
