<?xml version="1.0" encoding="UTF-8"?>
<!DOCTYPE svg PUBLIC "-//W3C//DTD SVG 1.1//EN" "http://www.w3.org/Graphics/SVG/1.1/DTD/svg11.dtd">
<svg xmlns="http://www.w3.org/2000/svg" version="1.1" width="1024px" height="1024px" style="shape-rendering:geometricPrecision; text-rendering:geometricPrecision; image-rendering:optimizeQuality; fill-rule:evenodd; clip-rule:evenodd" xmlns:xlink="http://www.w3.org/1999/xlink">
<g><path style="opacity:1" fill="#bc8f8e" d="M 387.5,363.5 C 433.033,383.682 477.199,406.349 520,431.5C 565.581,403.459 613.748,380.959 664.5,364C 690.794,394.852 704.96,430.686 707,471.5C 714.174,571.661 667.674,625.494 567.5,633C 527.431,636.561 487.431,635.894 447.5,631C 420.108,627.208 395.108,617.541 372.5,602C 351.35,584.804 338.516,562.637 334,535.5C 326.776,491.737 332.442,449.737 351,409.5C 360.716,392.277 372.883,376.943 387.5,363.5 Z"/></g>
<g><path style="opacity:1" fill="#bd908e" d="M 656.5,424.5 C 659.167,427.69 658.5,428.19 654.5,426C 655.416,425.722 656.082,425.222 656.5,424.5 Z"/></g>
<g><path style="opacity:1" fill="#bd908e" d="M 659.5,427.5 C 661.63,429.127 663.63,430.96 665.5,433C 665,433.5 664.5,434 664,434.5C 662.833,432 661,430.167 658.5,429C 659.056,428.617 659.389,428.117 659.5,427.5 Z"/></g>
<g><path style="opacity:1" fill="#bd908e" d="M 623.5,429.5 C 624.975,430.262 626.309,430.595 627.5,430.5C 626.264,431.357 624.931,432.023 623.5,432.5C 622.913,431.767 622.913,430.767 623.5,429.5 Z"/></g>
<g><path style="opacity:1" fill="#bd908e" d="M 389.5,434.5 C 393.447,435.476 393.447,436.476 389.5,437.5C 388.913,436.767 388.913,435.767 389.5,434.5 Z"/></g>
<g><path style="opacity:1" fill="#bd908e" d="M 411.5,434.5 C 414.167,437.69 413.5,438.19 409.5,436C 410.416,435.722 411.082,435.222 411.5,434.5 Z"/></g>
<g><path style="opacity:1" fill="#bd908e" d="M 612.5,434.5 C 613.975,435.262 615.309,435.595 616.5,435.5C 615.264,436.357 613.931,437.023 612.5,437.5C 611.913,436.767 611.913,435.767 612.5,434.5 Z"/></g>
<g><path style="opacity:1" fill="#bd908e" d="M 665.5,434.5 C 668.686,434.974 669.186,436.307 667,438.5C 666.209,437.255 665.709,435.922 665.5,434.5 Z"/></g>
<g><path style="opacity:1" fill="#bb8e8e" d="M 800.5,435.5 C 786.348,472.476 768.848,508.143 748,542.5C 742.577,550.345 736.911,558.011 731,565.5C 731.558,559.486 732.558,553.486 734,547.5C 734.333,533.833 734.667,520.167 735,506.5C 750.721,490.779 766.387,475.113 782,459.5C 788.765,451.909 794.931,443.909 800.5,435.5 Z"/></g>
<g><path style="opacity:1" fill="#bb8f8e" d="M 230.5,436.5 C 250.694,461.094 272.527,484.427 296,506.5C 296.333,520.5 296.667,534.5 297,548.5C 297.496,553.988 298.996,559.155 301.5,564C 299.613,564.163 298.113,563.329 297,561.5C 279.146,537.147 263.813,511.147 251,483.5C 243.604,468.046 236.771,452.379 230.5,436.5 Z"/></g>
<g><path style="opacity:1" fill="#bd908e" d="M 386.5,437.5 C 387.289,437.783 387.956,438.283 388.5,439C 386,440.167 384.167,442 383,444.5C 382.5,444 382,443.5 381.5,443C 383.373,441.296 385.04,439.463 386.5,437.5 Z"/></g>
<g><path style="opacity:1" fill="#bd908e" d="M 414.5,437.5 C 416.63,439.127 418.63,440.96 420.5,443C 420,443.5 419.5,444 419,444.5C 417.833,442 416,440.167 413.5,439C 414.056,438.617 414.389,438.117 414.5,437.5 Z"/></g>
<g><path style="opacity:1" fill="#bd908e" d="M 601.5,441.5 C 605.447,442.476 605.447,443.476 601.5,444.5C 600.913,443.767 600.913,442.767 601.5,441.5 Z"/></g>
<g><path style="opacity:1" fill="#bd908e" d="M 380.5,444.5 C 381.465,445.721 381.298,447.054 380,448.5C 379.626,447.584 379.126,446.75 378.5,446C 379.416,445.722 380.082,445.222 380.5,444.5 Z"/></g>
<g><path style="opacity:1" fill="#bd908e" d="M 420.5,444.5 C 423.686,444.974 424.186,446.307 422,448.5C 421.209,447.255 420.709,445.922 420.5,444.5 Z"/></g>
<g><path style="opacity:1" fill="#bd908e" d="M 590.5,448.5 C 594.447,449.476 594.447,450.476 590.5,451.5C 589.913,450.767 589.913,449.767 590.5,448.5 Z"/></g>
<g><path style="opacity:1" fill="#bd908e" d="M 443.5,454.5 C 446.167,457.69 445.5,458.19 441.5,456C 442.416,455.722 443.082,455.222 443.5,454.5 Z"/></g>
<g><path style="opacity:1" fill="#bd908e" d="M 579.5,455.5 C 583.447,456.476 583.447,457.476 579.5,458.5C 578.913,457.767 578.913,456.767 579.5,455.5 Z"/></g>
<g><path style="opacity:1" fill="#bd908e" d="M 446.5,457.5 C 448.63,459.127 450.63,460.96 452.5,463C 452,463.5 451.5,464 451,464.5C 449.833,462 448,460.167 445.5,459C 446.056,458.617 446.389,458.117 446.5,457.5 Z"/></g>
<g><path style="opacity:1" fill="#bd908e" d="M 576.5,458.5 C 577.289,458.783 577.956,459.283 578.5,460C 573.215,463.538 572.548,463.038 576.5,458.5 Z"/></g>
<g><path style="opacity:1" fill="#bd908e" d="M 452.5,464.5 C 455.686,464.974 456.186,466.307 454,468.5C 453.209,467.255 452.709,465.922 452.5,464.5 Z"/></g>
<g><path style="opacity:1" fill="#bd908e" d="M 565.5,466.5 C 566.289,466.783 566.956,467.283 567.5,468C 562.215,471.538 561.548,471.038 565.5,466.5 Z"/></g>
<g><path style="opacity:1" fill="#bd908e" d="M 664.5,466.5 C 667.1,468.244 666.934,469.577 664,470.5C 663.805,469.181 663.972,467.847 664.5,466.5 Z"/></g>
<g><path style="opacity:1" fill="#bd908e" d="M 381.5,471.5 C 383.377,472.659 383.877,474.326 383,476.5C 382.392,474.846 381.892,473.179 381.5,471.5 Z"/></g>
<g><path style="opacity:1" fill="#bd908e" d="M 554.5,474.5 C 555.289,474.783 555.956,475.283 556.5,476C 554,477.167 552.167,479 551,481.5C 550.5,481 550,480.5 549.5,480C 551.373,478.296 553.04,476.463 554.5,474.5 Z"/></g>
<g><path style="opacity:1" fill="#bd908e" d="M 659.5,476.5 C 660.239,476.369 660.906,476.536 661.5,477C 660.167,478 660.167,479 661.5,480C 660.584,480.374 659.75,480.874 659,481.5C 659.019,479.893 659.185,478.226 659.5,476.5 Z"/></g>
<g><path style="opacity:1" fill="#bd908e" d="M 548.5,481.5 C 549.465,482.721 549.298,484.054 548,485.5C 547.626,484.584 547.126,483.75 546.5,483C 547.416,482.722 548.082,482.222 548.5,481.5 Z"/></g>
<g><path style="opacity:1" fill="#bd908e" d="M 656.5,481.5 C 657.289,481.783 657.956,482.283 658.5,483C 656.667,484.833 654.833,486.667 653,488.5C 652.5,488 652,487.5 651.5,487C 654.056,485.945 655.723,484.112 656.5,481.5 Z"/></g>
<g><path style="opacity:1" fill="#bd908e" d="M 389.5,498.5 C 392.478,501.715 392.145,502.548 388.5,501C 389.252,500.329 389.586,499.496 389.5,498.5 Z"/></g>
<g><path style="opacity:1" fill="#bd908e" d="M 452.5,500.5 C 453.849,499.203 455.182,499.37 456.5,501C 455.181,501.195 453.847,501.028 452.5,500.5 Z"/></g>
<g><path style="opacity:1" fill="#bd908e" d="M 457.5,501.5 C 459.63,503.127 461.63,504.96 463.5,507C 463,507.5 462.5,508 462,508.5C 460.833,506 459,504.167 456.5,503C 457.056,502.617 457.389,502.117 457.5,501.5 Z"/></g>
<g><path style="opacity:1" fill="#bd908e" d="M 643.5,501.5 C 644.713,502.497 644.546,503.497 643,504.5C 642.53,503.423 642.697,502.423 643.5,501.5 Z"/></g>
<g><path style="opacity:1" fill="#bd908e" d="M 392.5,502.5 C 393.932,504.327 395.599,505.994 397.5,507.5C 395.126,507.755 393.126,506.588 391.5,504C 392.056,503.617 392.389,503.117 392.5,502.5 Z"/></g>
<g><path style="opacity:1" fill="#bd908e" d="M 463.5,508.5 C 466.686,508.974 467.186,510.307 465,512.5C 464.209,511.255 463.709,509.922 463.5,508.5 Z"/></g>
<g><path style="opacity:1" fill="#bd908e" d="M 392.5,519.5 C 393.465,520.721 393.298,522.054 392,523.5C 391.626,522.584 391.126,521.75 390.5,521C 391.416,520.722 392.082,520.222 392.5,519.5 Z"/></g>
<g><path style="opacity:1" fill="#bd908e" d="M 548.5,524.5 C 551.478,527.715 551.145,528.548 547.5,527C 548.252,526.329 548.586,525.496 548.5,524.5 Z"/></g>
<g><path style="opacity:1" fill="#bd908e" d="M 551.5,528.5 C 552.932,530.327 554.599,531.994 556.5,533.5C 556.167,533.833 555.833,534.167 555.5,534.5C 552.628,533.059 551.295,531.059 551.5,528.5 Z"/></g>
<g><path style="opacity:1" fill="#be908e" d="M 643.5,528.5 C 644.343,530.487 645.01,532.654 645.5,535C 645.37,536.059 644.87,536.892 644,537.5C 643.893,534.713 643.726,531.713 643.5,528.5 Z"/></g>
<g><path style="opacity:1" fill="#bd908e" d="M 459.5,539.5 C 460.239,539.369 460.906,539.536 461.5,540C 460.167,541 460.167,542 461.5,543C 460.584,543.374 459.75,543.874 459,544.5C 459.019,542.893 459.185,541.226 459.5,539.5 Z"/></g>
<g><path style="opacity:1" fill="#bd908e" d="M 456.5,544.5 C 457.289,544.783 457.956,545.283 458.5,546C 456.983,547.685 455.316,549.185 453.5,550.5C 453.167,550.167 452.833,549.833 452.5,549.5C 454.552,548.389 455.886,546.723 456.5,544.5 Z"/></g>
<g><path style="opacity:1" fill="#bd908e" d="M 562.5,546.5 C 563.302,545.115 563.969,545.282 564.5,547C 566.125,550.451 565.458,551.117 562.5,549C 563.774,548.023 563.774,547.189 562.5,546.5 Z"/></g>
<g><path style="opacity:1" fill="#bd908e" d="M 566.5,550.5 C 567.977,552.807 569.977,554.64 572.5,556C 572,556.5 571.5,557 571,557.5C 569.167,555.667 567.333,553.833 565.5,552C 566.056,551.617 566.389,551.117 566.5,550.5 Z"/></g>
<g><path style="opacity:1" fill="#be908e" d="M 643.5,550.5 C 644.267,551.172 644.934,552.005 645.5,553C 643.939,553.188 643.272,552.355 643.5,550.5 Z"/></g>
<g><path style="opacity:1" fill="#bd908e" d="M 644.5,556.5 C 645.267,557.172 645.934,558.005 646.5,559C 644.939,559.188 644.272,558.355 644.5,556.5 Z"/></g>
<g><path style="opacity:1" fill="#bd908e" d="M 572.5,558.5 C 573.721,557.535 575.054,557.702 576.5,559C 575.072,559.579 573.738,559.412 572.5,558.5 Z"/></g>
<g><path style="opacity:1" fill="#bd908e" d="M 388.5,563.5 C 389.465,564.721 389.298,566.054 388,567.5C 387.626,566.584 387.126,565.75 386.5,565C 387.416,564.722 388.082,564.222 388.5,563.5 Z"/></g>
<g><path style="opacity:1" fill="#bd908e" d="M 562.5,563.5 C 566.447,564.476 566.447,565.476 562.5,566.5C 561.913,565.767 561.913,564.767 562.5,563.5 Z"/></g>
<g><path style="opacity:1" fill="#bd908e" d="M 551.5,567.5 C 555.447,568.476 555.447,569.476 551.5,570.5C 550.913,569.767 550.913,568.767 551.5,567.5 Z"/></g>
<g><path style="opacity:1" fill="#bd908e" d="M 646.5,583.5 C 649.1,585.244 648.934,586.577 646,587.5C 645.805,586.181 645.972,584.847 646.5,583.5 Z"/></g>
<g><path style="opacity:1" fill="#bd908e" d="M 387.5,584.5 C 390.478,587.715 390.145,588.548 386.5,587C 387.252,586.329 387.586,585.496 387.5,584.5 Z"/></g>
<g><path style="opacity:1" fill="#bd908e" d="M 643.5,587.5 C 644.289,587.783 644.956,588.283 645.5,589C 643.667,590.833 641.833,592.667 640,594.5C 639.5,594 639,593.5 638.5,593C 641.056,591.945 642.723,590.112 643.5,587.5 Z"/></g>
<g><path style="opacity:1" fill="#bd908e" d="M 390.5,588.5 C 391.977,590.807 393.977,592.64 396.5,594C 396,594.5 395.5,595 395,595.5C 393.167,593.667 391.333,591.833 389.5,590C 390.056,589.617 390.389,589.117 390.5,588.5 Z"/></g>
<g><path style="opacity:1" fill="#bd908e" d="M 613.5,595.5 C 614.721,594.535 616.054,594.702 617.5,596C 616.584,596.374 615.75,596.874 615,597.5C 614.722,596.584 614.222,595.918 613.5,595.5 Z"/></g>
<g><path style="opacity:1" fill="#bd908e" d="M 636.5,594.5 C 638.646,594.696 638.812,595.696 637,597.5C 636.25,596.874 635.416,596.374 634.5,596C 635.416,595.722 636.082,595.222 636.5,594.5 Z"/></g>
<g><path style="opacity:1" fill="#bd908e" d="M 396.5,596.5 C 397.721,595.535 399.054,595.702 400.5,597C 399.584,597.374 398.75,597.874 398,598.5C 397.722,597.584 397.222,596.918 396.5,596.5 Z"/></g>
<g><path style="opacity:1" fill="#bd908e" d="M 424.5,598.5 C 425.497,597.287 426.497,597.454 427.5,599C 426.423,599.47 425.423,599.303 424.5,598.5 Z"/></g>
<g><path style="opacity:1" fill="#bd908e" d="M 600.5,597.5 C 601.239,597.369 601.906,597.536 602.5,598C 601.333,599.167 600.167,600.333 599,601.5C 598.5,601 598,600.5 597.5,600C 598.571,599.148 599.571,598.315 600.5,597.5 Z"/></g>
<g><path style="opacity:1" fill="#bd908e" d="M 593.5,603.5 C 596.715,600.522 597.548,600.855 596,604.5C 595.329,603.748 594.496,603.414 593.5,603.5 Z"/></g>
<g><path style="opacity:1" fill="#bd908e" d="M 457.5,603.5 C 458.497,602.287 459.497,602.454 460.5,604C 459.423,604.47 458.423,604.303 457.5,603.5 Z"/></g>
<g><path style="opacity:1" fill="#bd908e" d="M 593.5,603.5 C 592.057,604.703 590.391,605.203 588.5,605C 589.905,603.731 591.571,603.231 593.5,603.5 Z"/></g>
<g><path style="opacity:1" fill="#bd908e" d="M 578.5,607.5 C 583.696,607.565 583.696,608.232 578.5,609.5C 577.537,609.03 577.537,608.363 578.5,607.5 Z"/></g>
</svg>
