<?xml version="1.0" encoding="UTF-8"?>
<!DOCTYPE svg PUBLIC "-//W3C//DTD SVG 1.1//EN" "http://www.w3.org/Graphics/SVG/1.1/DTD/svg11.dtd">
<svg xmlns="http://www.w3.org/2000/svg" version="1.1" width="1024px" height="1024px" style="shape-rendering:geometricPrecision; text-rendering:geometricPrecision; image-rendering:optimizeQuality; fill-rule:evenodd; clip-rule:evenodd" xmlns:xlink="http://www.w3.org/1999/xlink">
<g><path style="opacity:1" fill="#fee4b4" d="M 387.5,363.5 C 433.033,383.682 477.199,406.349 520,431.5C 565.581,403.459 613.748,380.959 664.5,364C 690.794,394.852 704.96,430.686 707,471.5C 714.174,571.661 667.674,625.494 567.5,633C 527.431,636.561 487.431,635.894 447.5,631C 420.108,627.208 395.108,617.541 372.5,602C 351.35,584.804 338.516,562.637 334,535.5C 326.776,491.737 332.442,449.737 351,409.5C 360.716,392.277 372.883,376.943 387.5,363.5 Z"/></g>
<g><path style="opacity:1" fill="#fee5b3" d="M 800.5,435.5 C 786.348,472.476 768.848,508.143 748,542.5C 742.577,550.345 736.911,558.011 731,565.5C 731.558,559.486 732.558,553.486 734,547.5C 734.333,533.833 734.667,520.167 735,506.5C 750.721,490.779 766.387,475.113 782,459.5C 788.765,451.909 794.931,443.909 800.5,435.5 Z"/></g>
<g><path style="opacity:1" fill="#fee5b3" d="M 230.5,436.5 C 250.694,461.094 272.527,484.427 296,506.5C 296.333,520.5 296.667,534.5 297,548.5C 297.496,553.988 298.996,559.155 301.5,564C 299.613,564.163 298.113,563.329 297,561.5C 279.146,537.147 263.813,511.147 251,483.5C 243.604,468.046 236.771,452.379 230.5,436.5 Z"/></g>
</svg>
