<?xml version="1.0" encoding="UTF-8"?>
<!DOCTYPE svg PUBLIC "-//W3C//DTD SVG 1.1//EN" "http://www.w3.org/Graphics/SVG/1.1/DTD/svg11.dtd">
<svg xmlns="http://www.w3.org/2000/svg" version="1.1" width="1024px" height="1024px" style="shape-rendering:geometricPrecision; text-rendering:geometricPrecision; image-rendering:optimizeQuality; fill-rule:evenodd; clip-rule:evenodd" xmlns:xlink="http://www.w3.org/1999/xlink">
<g><path style="opacity:1" fill="#ecd9c6" d="M 387.5,363.5 C 433.033,383.682 477.199,406.349 520,431.5C 565.581,403.459 613.748,380.959 664.5,364C 690.794,394.852 704.96,430.686 707,471.5C 714.174,571.661 667.674,625.494 567.5,633C 527.431,636.561 487.431,635.894 447.5,631C 420.108,627.208 395.108,617.541 372.5,602C 351.35,584.804 338.516,562.637 334,535.5C 326.776,491.737 332.442,449.737 351,409.5C 360.716,392.277 372.883,376.943 387.5,363.5 Z"/></g>
<g><path style="opacity:1" fill="#ebd9c5" d="M 800.5,435.5 C 786.348,472.476 768.848,508.143 748,542.5C 742.577,550.345 736.911,558.011 731,565.5C 731.558,559.486 732.558,553.486 734,547.5C 734.333,533.833 734.667,520.167 735,506.5C 750.721,490.779 766.387,475.113 782,459.5C 788.765,451.909 794.931,443.909 800.5,435.5 Z"/></g>
<g><path style="opacity:1" fill="#ecd9c5" d="M 230.5,436.5 C 250.694,461.094 272.527,484.427 296,506.5C 296.333,520.5 296.667,534.5 297,548.5C 297.496,553.988 298.996,559.155 301.5,564C 299.613,564.163 298.113,563.329 297,561.5C 279.146,537.147 263.813,511.147 251,483.5C 243.604,468.046 236.771,452.379 230.5,436.5 Z"/></g>
<g><path style="opacity:1" fill="#edd9c8" d="M 417.5,437.5 C 419.086,438.148 420.753,438.648 422.5,439C 420.167,439.667 417.833,439.667 415.5,439C 416.416,438.722 417.082,438.222 417.5,437.5 Z"/></g>
<g><path style="opacity:1" fill="#edd9c7" d="M 579.5,452.5 C 581.564,452.687 583.564,453.187 585.5,454C 584.5,454.167 583.5,454.333 582.5,454.5C 580.97,454.36 579.97,453.693 579.5,452.5 Z"/></g>
<g><path style="opacity:1" fill="#eed9c7" d="M 562.5,568.5 C 564.086,569.148 565.753,569.648 567.5,570C 564.718,571.548 562.051,571.548 559.5,570C 560.737,569.768 561.737,569.268 562.5,568.5 Z"/></g>
<g><path style="opacity:1" fill="#eed9c7" d="M 643.5,570.5 C 645.596,573.191 645.93,576.191 644.5,579.5C 643.756,578.009 643.09,576.509 642.5,575C 643.38,573.644 643.714,572.144 643.5,570.5 Z"/></g>
</svg>
