<?xml version="1.0" encoding="UTF-8"?>
<!DOCTYPE svg PUBLIC "-//W3C//DTD SVG 1.1//EN" "http://www.w3.org/Graphics/SVG/1.1/DTD/svg11.dtd">
<svg xmlns="http://www.w3.org/2000/svg" version="1.1" width="1024px" height="1024px" style="shape-rendering:geometricPrecision; text-rendering:geometricPrecision; image-rendering:optimizeQuality; fill-rule:evenodd; clip-rule:evenodd" xmlns:xlink="http://www.w3.org/1999/xlink">
<g><path style="opacity:0.925" fill="#000000" d="M 383.5,449.5 C 382.833,448.167 382.833,448.167 383.5,449.5 Z"/></g>
<g><path style="opacity:0.995" fill="#000000" d="M 651.5,448.5 C 653.028,448.517 653.528,449.184 653,450.5C 643.28,459.927 632.78,468.261 621.5,475.5C 631.396,488.389 636.062,503.056 635.5,519.5C 636.41,530.275 633.077,539.442 625.5,547C 615.78,553.203 606.947,552.036 599,543.5C 596.522,540.211 594.856,536.544 594,532.5C 592.44,515.535 592.107,498.535 593,481.5C 611.995,469.586 631.495,458.586 651.5,448.5 Z"/></g>
<g><path style="opacity:0.995" fill="#000000" d="M 383.5,449.5 C 404.26,458.129 424.094,468.463 443,480.5C 443.931,498.544 443.598,516.544 442,534.5C 436.493,548.673 426.66,553.173 412.5,548C 403.594,540.252 399.594,530.419 400.5,518.5C 400.786,502.645 405.452,488.311 414.5,475.5C 406.05,469.558 397.716,463.391 389.5,457C 386.906,454.914 384.906,452.414 383.5,449.5 Z"/></g>
</svg>
