<?xml version="1.0" encoding="UTF-8"?>
<!DOCTYPE svg PUBLIC "-//W3C//DTD SVG 1.1//EN" "http://www.w3.org/Graphics/SVG/1.1/DTD/svg11.dtd">
<svg xmlns="http://www.w3.org/2000/svg" version="1.1" width="1024px" height="1024px" style="shape-rendering:geometricPrecision; text-rendering:geometricPrecision; image-rendering:optimizeQuality; fill-rule:evenodd; clip-rule:evenodd" xmlns:xlink="http://www.w3.org/1999/xlink">
<g><path style="opacity:0.041" fill="#000000" d="M 651.5,449.5 C 651.897,448.475 652.563,448.308 653.5,449C 652.906,449.464 652.239,449.631 651.5,449.5 Z"/></g>
<g><path style="opacity:0.004" fill="#000000" d="M 649.5,449.5 C 650.833,450.167 650.833,450.167 649.5,449.5 Z"/></g>
<g><path style="opacity:0.994" fill="#000000" d="M 420.5,467.5 C 428.218,471.443 435.718,475.776 443,480.5C 443.667,496.833 443.667,513.167 443,529.5C 439.572,547.121 429.405,553.288 412.5,548C 403.594,540.252 399.594,530.419 400.5,518.5C 400.928,498.855 407.594,481.855 420.5,467.5 Z"/></g>
<g><path style="opacity:0.993" fill="#000000" d="M 613.5,468.5 C 625.128,476.726 631.962,488.059 634,502.5C 635.431,511.459 635.765,520.459 635,529.5C 632.929,541.332 626.096,548.665 614.5,551.5C 600.521,548.573 593.354,539.906 593,525.5C 592.333,510.833 592.333,496.167 593,481.5C 599.982,477.267 606.816,472.934 613.5,468.5 Z"/></g>
</svg>
