<?xml version="1.0" encoding="UTF-8"?>
<!DOCTYPE svg PUBLIC "-//W3C//DTD SVG 1.1//EN" "http://www.w3.org/Graphics/SVG/1.1/DTD/svg11.dtd">
<svg xmlns="http://www.w3.org/2000/svg" version="1.1" width="1024px" height="1024px" style="shape-rendering:geometricPrecision; text-rendering:geometricPrecision; image-rendering:optimizeQuality; fill-rule:evenodd; clip-rule:evenodd" xmlns:xlink="http://www.w3.org/1999/xlink">
<g><path style="opacity:0.011" fill="#000000" d="M 651.5,447.5 C 652.376,447.369 653.043,447.702 653.5,448.5C 651.192,449.873 650.525,449.54 651.5,447.5 Z"/></g>
<g><path style="opacity:0.952" fill="#000000" d="M 419.5,466.5 C 427.599,470.05 435.265,474.383 442.5,479.5C 443.918,497.863 443.751,516.196 442,534.5C 440.744,538.016 438.744,541.016 436,543.5C 426.412,531.524 416.912,531.524 407.5,543.5C 401.697,536.215 399.031,527.881 399.5,518.5C 399.695,498.569 406.361,481.235 419.5,466.5 Z"/></g>
<g><path style="opacity:0.953" fill="#000000" d="M 612.5,467.5 C 621.398,472.905 627.565,480.572 631,490.5C 636.429,506.4 636.762,522.4 632,538.5C 630.647,539.685 629.48,541.019 628.5,542.5C 623.3,534.639 616.3,532.473 607.5,536C 604.041,538.082 601.374,540.915 599.5,544.5C 594.538,538.784 592.038,532.117 592,524.5C 591.167,509.822 591.334,495.155 592.5,480.5C 599.232,476.143 605.898,471.809 612.5,467.5 Z"/></g>
</svg>
