<?xml version="1.0" encoding="UTF-8"?>
<!DOCTYPE svg PUBLIC "-//W3C//DTD SVG 1.1//EN" "http://www.w3.org/Graphics/SVG/1.1/DTD/svg11.dtd">
<svg xmlns="http://www.w3.org/2000/svg" version="1.1" width="1024px" height="1024px" style="shape-rendering:geometricPrecision; text-rendering:geometricPrecision; image-rendering:optimizeQuality; fill-rule:evenodd; clip-rule:evenodd" xmlns:xlink="http://www.w3.org/1999/xlink">
<g><path style="opacity:1" fill="#00796a" d="M 445.5,638.5 C 455.544,638.781 465.544,639.615 475.5,641C 494.109,647.38 508.609,658.88 519,675.5C 524.609,665.476 531.776,656.642 540.5,649C 560.155,634.387 579.155,635.054 597.5,651C 598.337,652.011 598.67,653.178 598.5,654.5C 586.905,655.531 575.905,658.698 565.5,664C 558.241,666.148 550.908,667.981 543.5,669.5C 548.77,674.052 554.603,677.719 561,680.5C 564.769,678.401 568.269,675.901 571.5,673C 574.309,671.259 577.309,670.092 580.5,669.5C 582.692,676.91 585.192,684.243 588,691.5C 589.314,695.754 590.147,700.087 590.5,704.5C 576.518,703.484 562.518,702.65 548.5,702C 547.527,699.365 545.86,697.365 543.5,696C 526.833,695.333 510.167,695.333 493.5,696C 491.45,697.636 490.45,699.802 490.5,702.5C 474.464,702.947 458.464,703.947 442.5,705.5C 444.271,692.414 447.605,679.747 452.5,667.5C 461.61,670.886 469.943,675.552 477.5,681.5C 482.973,677.86 488.306,674.027 493.5,670C 476.506,666.558 459.84,661.892 443.5,656C 437.925,654.485 432.258,653.485 426.5,653C 432.183,647.176 438.516,642.343 445.5,638.5 Z"/></g>
<g><path style="opacity:1" fill="#00796a" d="M 439.5,724.5 C 452.066,727.176 464.732,729.343 477.5,731C 484.02,732.595 490.02,735.262 495.5,739C 510.5,739.667 525.5,739.667 540.5,739C 547.418,735.301 554.751,732.468 562.5,730.5C 572.945,729.011 583.278,727.011 593.5,724.5C 596.238,732.955 597.071,741.621 596,750.5C 592.5,755.333 588.333,759.5 583.5,763C 571.548,770.558 559.381,777.725 547,784.5C 540.654,767.778 531.32,753.111 519,740.5C 506.53,753.01 497.197,767.677 491,784.5C 489.833,783.333 488.667,782.167 487.5,781C 469.357,773.415 453.19,762.915 439,749.5C 437.434,741.186 437.601,732.853 439.5,724.5 Z"/></g>
</svg>
