<?xml version="1.0" encoding="UTF-8"?>
<!DOCTYPE svg PUBLIC "-//W3C//DTD SVG 1.1//EN" "http://www.w3.org/Graphics/SVG/1.1/DTD/svg11.dtd">
<svg xmlns="http://www.w3.org/2000/svg" version="1.1" width="1024px" height="1024px" style="shape-rendering:geometricPrecision; text-rendering:geometricPrecision; image-rendering:optimizeQuality; fill-rule:evenodd; clip-rule:evenodd" xmlns:xlink="http://www.w3.org/1999/xlink">
<g><path style="opacity:1" fill="#287f3a" d="M 482.5,688.5 C 488.488,688.664 489.821,691.164 486.5,696C 480.403,696.147 479.07,693.647 482.5,688.5 Z"/></g>
<g><path style="opacity:1" fill="#287f3a" d="M 548.5,688.5 C 554.488,688.664 555.821,691.164 552.5,696C 546.403,696.147 545.07,693.647 548.5,688.5 Z"/></g>
<g><path style="opacity:0.004" fill="#e8e8e8" d="M 476.5,730.5 C 480.373,732.154 480.04,732.654 475.5,732C 476.056,731.617 476.389,731.117 476.5,730.5 Z"/></g>
<g><path style="opacity:1" fill="#287f3a" d="M 483.5,740.5 C 489.488,740.664 490.821,743.164 487.5,748C 481.403,748.147 480.07,745.647 483.5,740.5 Z"/></g>
<g><path style="opacity:1" fill="#287f3a" d="M 549.5,740.5 C 555.488,740.664 556.821,743.164 553.5,748C 547.403,748.147 546.07,745.647 549.5,740.5 Z"/></g>
<g><path style="opacity:0.004" fill="#e8e8e8" d="M 477.5,782.5 C 481.373,784.154 481.04,784.654 476.5,784C 477.056,783.617 477.389,783.117 477.5,782.5 Z"/></g>
</svg>
